#!OML:ASF G:\JayActor3\Patient Classification 1\Patient 1\Session 2\male.ASF
:FULLY-SPECIFIED
:DEGREES
3590
root -6.50788 15.775 -7.32746 749.925 -85.0132 -23.8132
lowerback 14.1397 4.81465 3.2813
upperback 13.9898 5.67092 -0.779129
thorax 7.57495 2.79159 -3.0952
lowerneck -6.39297 5.83642 6.34261
upperneck -1.93925 7.40932 -8.26237
head 1.10596 3.58093 -3.55832
rclavicle 3.99557e-014 -3.49861e-014
rhumerus 0.368317 14.4703 -70.3194
rradius 84.8827
rwrist 12.6829
rhand -43.1172 10.6189
rfingers 7.12502
rthumb -15.9712 -18.7426
lclavicle 3.99557e-014 -3.49861e-014
lhumerus -54.8815 -15.9823 80.9602
lradius 67.0803
lwrist 5.64056
lhand -25.835 11.6779
lfingers 7.12502
lthumb 0.705144 41.6565
rfemur -18.4046 -7.82676 31.0952
rtibia 55.7289
rfoot -38.4441 -20.7943
rtoes 5.80556
lfemur -56.271 17.9598 -33.2509
ltibia 32.2139
lfoot 13.2913 13.4482
ltoes -10.194
3591
root -6.66705 15.8006 -7.29981 751.951 -85.1951 -25.6932
lowerback 13.9393 4.85558 3.27874
upperback 13.8986 5.73288 -0.744858
thorax 7.57831 2.82312 -3.04866
lowerneck -6.32813 5.79138 6.28636
upperneck -1.95194 7.35446 -8.21971
head 1.08126 3.55554 -3.53739
rclavicle -5.52621e-014 4.07509e-014
rhumerus 0.416156 14.7001 -70.3331
rradius 84.7888
rwrist 12.7078
rhand -43.1506 10.6381
rfingers 7.12502
rthumb -16.0034 -18.7209
lclavicle -5.52621e-014 4.07509e-014
lhumerus -55.1691 -15.9196 80.8574
lradius 67.3818
lwrist 5.59055
lhand -25.8439 11.6566
lfingers 7.12502
lthumb 0.696498 41.6352
rfemur -17.7068 -7.84431 30.94
rtibia 55.2658
rfoot -37.9105 -20.6619
rtoes 5.10992
lfemur -56.0498 18.383 -33.726
ltibia 31.1783
lfoot 14.1796 14.0734
ltoes -8.48045
3592
root -6.82823 15.8265 -7.27163 753.989 -85.3624 -27.5771
lowerback 13.7411 4.89621 3.26314
upperback 13.8049 5.79366 -0.706825
thorax 7.57551 2.85271 -2.99099
lowerneck -6.26221 5.74777 6.22916
upperneck -1.97118 7.30126 -8.1804
head 1.05458 3.53099 -3.51743
rclavicle -3.33958e-014 4.05521e-014
rhumerus 0.434843 14.9234 -70.3419
rradius 84.7112
rwrist 12.7454
rhand -43.1914 10.6409
rfingers 7.12502
rthumb -16.0426 -18.7149
lclavicle -3.33958e-014 4.05521e-014
lhumerus -55.4503 -15.8616 80.7484
lradius 67.6867
lwrist 5.53378
lhand -25.8401 11.6461
lfingers 7.12502
lthumb 0.700161 41.6247
rfemur -17.0051 -7.85871 30.7741
rtibia 54.7882
rfoot -37.3619 -20.5365
rtoes 4.41207
lfemur -55.8391 18.7538 -34.1402
ltibia 30.3738
lfoot 14.9711 14.7958
ltoes -6.76459
3593
root -6.99207 15.8523 -7.24288 756.118 -85.5171 -29.5514
lowerback 13.5385 4.93705 3.23815
upperback 13.7153 5.8534 -0.663245
thorax 7.57791 2.88066 -2.92157
lowerneck -6.19363 5.70633 6.17216
upperneck -2.0011 7.25052 -8.14925
head 1.02465 3.50767 -3.50038
rclavicle -3.02153e-014 -7.95139e-015
rhumerus 0.433172 15.1403 -70.347
rradius 84.6483
rwrist 12.7859
rhand -43.2334 10.6385
rfingers 7.12502
rthumb -16.0831 -18.7141
lclavicle -3.02153e-014 -7.95139e-015
lhumerus -55.7218 -15.8038 80.6325
lradius 67.9976
lwrist 5.47831
lhand -25.8319 11.6524
lfingers 7.12502
lthumb 0.708115 41.6309
rfemur -16.2904 -7.8634 30.6018
rtibia 54.297
rfoot -36.8126 -20.3969
rtoes 3.79407
lfemur -55.6311 19.0757 -34.478
ltibia 29.813
lfoot 15.6334 15.5754
ltoes -4.95269
3594
root -7.15857 15.8776 -7.21329 758.359 -85.6607 -31.6423
lowerback 13.3411 4.97805 3.21353
upperback 13.6278 5.91312 -0.618414
thorax 7.57996 2.9085 -2.85119
lowerneck -6.12243 5.66455 6.11835
upperneck -2.03561 7.19895 -8.12051
head 0.993052 3.48397 -3.48489
rclavicle -1.33186e-014 2.90226e-014
rhumerus 0.402055 15.3457 -70.3566
rradius 84.604
rwrist 12.8217
rhand -43.2688 10.6292
rfingers 7.12502
rthumb -16.1172 -18.7206
lclavicle -1.33186e-014 2.90226e-014
lhumerus -55.9871 -15.7568 80.5073
lradius 68.3104
lwrist 5.43287
lhand -25.8221 11.6637
lfingers 7.12502
lthumb 0.717574 41.6422
rfemur -15.5603 -7.85988 30.4217
rtibia 53.7981
rfoot -36.2549 -20.2411
rtoes 3.24327
lfemur -55.4173 19.3441 -34.7272
ltibia 29.5022
lfoot 16.1348 16.3088
ltoes -3.00326
3595
root -7.32801 15.9018 -7.18283 760.782 -85.7921 -33.9213
lowerback 13.1453 5.01936 3.19308
upperback 13.5445 5.97301 -0.571839
thorax 7.58656 2.93663 -2.78103
lowerneck -6.05806 5.62314 6.06987
upperneck -2.06569 7.14741 -8.09547
head 0.964605 3.46005 -3.47143
rclavicle -3.51849e-014 2.92213e-014
rhumerus 0.344823 15.5397 -70.372
rradius 84.5761
rwrist 12.8517
rhand -43.2961 10.6208
rfingers 7.12502
rthumb -16.1435 -18.7269
lclavicle -3.51849e-014 2.92213e-014
lhumerus -56.2436 -15.7201 80.3721
lradius 68.6246
lwrist 5.40901
lhand -25.8233 11.6693
lfingers 7.12502
lthumb 0.716455 41.6479
rfemur -14.8185 -7.8485 30.2374
rtibia 53.3006
rfoot -35.6913 -20.0608
rtoes 2.77993
lfemur -55.2014 19.5639 -34.8856
ltibia 29.4423
lfoot 16.5344 16.7752
ltoes -1.12688
3596
root -7.50022 15.9242 -7.15126 763.383 -85.9061 -36.3867
lowerback 12.9524 5.05869 3.18429
upperback 13.4668 6.03045 -0.524901
thorax 7.59955 2.96445 -2.71653
lowerneck -6.0095 5.58149 6.02536
upperneck -2.08274 7.09517 -8.06796
head 0.943248 3.43537 -3.45732
rclavicle 1.15295e-014 -2.72335e-014
rhumerus 0.261134 15.7178 -70.3976
rradius 84.5671
rwrist 12.8772
rhand -43.311 10.616
rfingers 7.12502
rthumb -16.1579 -18.7305
lclavicle 1.15295e-014 -2.72335e-014
lhumerus -56.4883 -15.695 80.2258
lradius 68.9393
lwrist 5.41238
lhand -25.8231 11.6711
lfingers 7.12502
lthumb 0.716554 41.6496
rfemur -14.0701 -7.84035 30.0494
rtibia 52.8175
rfoot -35.1042 -19.8712
rtoes 2.33845
lfemur -54.9855 19.7403 -34.9637
ltibia 29.6192
lfoot 16.8726 16.7956
ltoes 0.546456
3597
root -7.67476 15.9443 -7.11888 766.156 -85.9972 -39.0268
lowerback 12.7623 5.09563 3.1891
upperback 13.393 6.08519 -0.477139
thorax 7.61705 2.992 -2.65833
lowerneck -5.98356 5.53987 5.98684
upperneck -2.07947 7.04252 -8.03598
head 0.932544 3.40991 -3.442
rclavicle -3.33958e-014 3.8763e-014
rhumerus 0.151934 15.88 -70.4331
rradius 84.5746
rwrist 12.8992
rhand -43.3185 10.6188
rfingers 7.12502
rthumb -16.1651 -18.7272
lclavicle -3.33958e-014 3.8763e-014
lhumerus -56.7194 -15.6856 80.0707
lradius 69.2523
lwrist 5.4462
lhand -25.8402 11.6739
lfingers 7.12502
lthumb 0.700098 41.6525
rfemur -13.3304 -7.84063 29.8638
rtibia 52.3631
rfoot -34.485 -19.6802
rtoes 1.89112
lfemur -54.7823 19.8797 -34.9765
ltibia 30.0085
lfoot 17.1635 16.3041
ltoes 2.00923
3598
root -7.85112 15.962 -7.08556 768.886 -86.0657 -41.6271
lowerback 12.5797 5.12718 3.20265
upperback 13.3225 6.13318 -0.432681
thorax 7.63542 3.01704 -2.60839
lowerneck -5.9824 5.49926 5.95872
upperneck -2.05449 6.99055 -7.99995
head 0.933599 3.38413 -3.42632
rclavicle -8.15017e-015 1.27222e-014
rhumerus 0.0162071 16.0238 -70.4797
rradius 84.5984
rwrist 12.9354
rhand -43.3228 10.6205
rfingers 7.12502
rthumb -16.1692 -18.7251
lclavicle -8.15017e-015 1.27222e-014
lhumerus -56.9342 -15.6943 79.9061
lradius 69.5622
lwrist 5.51573
lhand -25.8626 11.6888
lfingers 7.12502
lthumb 0.678441 41.6675
rfemur -12.6111 -7.86195 29.669
rtibia 51.9519
rfoot -33.8282 -19.4963
rtoes 1.41102
lfemur -54.5951 19.9799 -34.951
ltibia 30.5719
lfoot 17.3863 15.3562
ltoes 3.2283
3599
root -8.02835 15.9773 -7.05188 771.426 -86.1038 -44.0353
lowerback 12.4113 5.15146 3.22403
upperback 13.2506 6.17236 -0.390037
thorax 7.64526 3.03839 -2.56539
lowerneck -6.0018 5.45875 5.94403
upperneck -2.0099 6.9379 -7.96081
head 0.945053 3.35746 -3.41141
rclavicle -4.63168e-014 2.46493e-014
rhumerus -0.149897 16.1441 -70.5395
rradius 84.6399
rwrist 12.9873
rhand -43.326 10.6278
rfingers 7.12502
rthumb -16.1723 -18.7175
lclavicle -4.63168e-014 2.46493e-014
lhumerus -57.1342 -15.7283 79.7361
lradius 69.8679
lwrist 5.61465
lhand -25.9058 11.7123
lfingers 7.12502
lthumb 0.636688 41.6911
rfemur -11.9301 -7.90909 29.4734
rtibia 51.5959
rfoot -33.1393 -19.3176
rtoes 0.935005
lfemur -54.4321 20.0263 -34.8896
ltibia 31.2671
lfoot 17.441 14.1745
ltoes 4.30307
3600
root -8.2061 15.9906 -7.01789 773.554 -86.1244 -46.0295
lowerback 12.2574 5.16909 3.23975
upperback 13.1804 6.20251 -0.353067
thorax 7.64849 3.05497 -2.52604
lowerneck -6.03797 5.42059 5.94213
upperneck -1.95552 6.88731 -7.91945
head 0.963263 3.3314 -3.39756
rclavicle -9.34288e-015 1.70955e-014
rhumerus -0.339062 16.2394 -70.608
rradius 84.6971
rwrist 13.0592
rhand -43.327 10.6336
rfingers 7.12502
rthumb -16.1732 -18.7117
lclavicle -9.34288e-015 1.70955e-014
lhumerus -57.3134 -15.7865 79.5597
lradius 70.1701
lwrist 5.7357
lhand -25.9637 11.7416
lfingers 7.12502
lthumb 0.580836 41.7205
rfemur -11.2933 -7.98 29.2614
rtibia 51.3037
rfoot -32.4046 -19.1617
rtoes 0.427178
lfemur -54.2886 20.0138 -34.8073
ltibia 32.0489
lfoot 17.2523 13.0047
ltoes 5.27249
3601
root -8.38418 16.0025 -6.98351 775.156 -86.1288 -47.5028
lowerback 12.1245 5.17764 3.25076
upperback 13.1155 6.22008 -0.320844
thorax 7.64539 3.06494 -2.49019
lowerneck -6.08725 5.3849 5.94408
upperneck -1.8997 6.83914 -7.87337
head 0.984402 3.30633 -3.3824
rclavicle -6.55989e-015 -1.70955e-014
rhumerus -0.547739 16.3073 -70.6863
rradius 84.7684
rwrist 13.1559
rhand -43.3315 10.6515
rfingers 7.12502
rthumb -16.1776 -18.6934
lclavicle -6.55989e-015 -1.70955e-014
lhumerus -57.4693 -15.8673 79.3785
lradius 70.4712
lwrist 5.87223
lhand -26.0286 11.7679
lfingers 7.12502
lthumb 0.518089 41.747
rfemur -10.6974 -8.07735 29.0304
rtibia 51.0784
rfoot -31.6346 -19.0138
rtoes -0.0304748
lfemur -54.1586 19.9432 -34.7052
ltibia 32.8838
lfoot 16.8117 12.0319
ltoes 6.20783
3602
root -8.56199 16.0134 -6.94923 776.119 -86.1259 -48.3363
lowerback 12.0124 5.17848 3.24566
upperback 13.0543 6.22648 -0.294214
thorax 7.63289 3.0681 -2.45272
lowerneck -6.13738 5.34895 5.94366
upperneck -1.85601 6.78993 -7.81974
head 1.00125 3.2809 -3.36439
rclavicle 3.75703e-014 -9.14409e-015
rhumerus -0.775724 16.3479 -70.7728
rradius 84.8552
rwrist 13.2637
rhand -43.3399 10.6712
rfingers 7.12502
rthumb -16.1857 -18.6731
lclavicle 3.75703e-014 -9.14409e-015
lhumerus -57.6006 -15.9743 79.1958
lradius 70.7721
lwrist 6.01709
lhand -26.0985 11.7952
lfingers 7.12502
lthumb 0.45064 41.7745
rfemur -10.1524 -8.19517 28.7754
rtibia 50.9218
rfoot -30.8257 -18.8745
rtoes -0.429972
lfemur -54.0517 19.8259 -34.6028
ltibia 33.7477
lfoot 16.1396 11.3499
ltoes 7.20673
